<svg xmlns="http://www.w3.org/2000/svg" width="75.148" height="106.596" viewBox="0 0 75.148 106.596">
  <g id="Group_222" data-name="Group 222" transform="translate(-0.002 -0.001)">
    <path id="Subtraction_9" data-name="Subtraction 9" d="M40.714,102.14v0L25.888,73.093A77.861,77.861,0,0,1,9.66,59.164a40.769,40.769,0,0,1-8.6-14.918A24.632,24.632,0,0,1,2.515,26.24,48.01,48.01,0,0,1,18.8,7.191,39.915,39.915,0,0,1,41.16,0,34.125,34.125,0,0,1,56.692,3.7,41.263,41.263,0,0,1,70.657,15.579c5.914,7.665,5.988,20.186.214,36.209A141.557,141.557,0,0,1,59.007,76.163a228.027,228.027,0,0,1-18.292,25.975Zm.52-82.943A17.063,17.063,0,1,0,58.3,36.26,17.082,17.082,0,0,0,41.233,19.2Z" transform="translate(0.002 0.001)" fill="#fff" opacity="0.3"/>
    <path id="Subtraction_10" data-name="Subtraction 10" d="M32.725,106.418h-.26a14.02,14.02,0,0,1,.134-1.652,11.432,11.432,0,0,1,.125,1.65Zm-.123-1.672h0C31.681,98.3,25.951,89.731,19.314,79.8l-.01-.016C13.769,71.505,7.5,62.12,3.7,53.1-.657,42.756-1.16,34.355,2.16,27.412A52.507,52.507,0,0,1,18.62,7.766,44.129,44.129,0,0,1,29.3,2.056,32.64,32.64,0,0,1,40.4,0,24.39,24.39,0,0,1,54.272,4.138c4.448,2.992,8.084,7.534,10.806,13.5,6.693,23.146-7.892,45.008-19.612,62.575C39.067,89.8,33.543,98.082,32.6,104.747ZM29.944,21.864A17.063,17.063,0,1,0,47.007,38.927,17.083,17.083,0,0,0,29.944,21.864Z" transform="translate(7.028 0.179)" fill="#fff"/>
  </g>
</svg>
