<svg xmlns="http://www.w3.org/2000/svg" width="654.391" height="526.242" viewBox="0 0 654.391 526.242">
  <g id="Group_811" data-name="Group 811" transform="translate(-594.654 -342.546)">
    <g id="Group_217" data-name="Group 217" transform="translate(-74.397 -4182.452)">
      <path id="Path_230" data-name="Path 230" d="M91.027,10.634c10.327,6.689,17.632,15.635,20.09,25.289,2.435,9.654,0,20-6.764,28.453-6.787,8.452-17.9,15.009-30.665,18.469a80.664,80.664,0,0,1-39.864.577C21.061,80.192,9.9,73.354,4.4,64.87s-5.366-18.6-2.21-27.777c3.157-9.16,9.312-17.365,18.444-24.2S41.9.567,54.635.04C67.352-.471,80.7,3.945,91.027,10.634Z" transform="matrix(0.978, -0.208, 0.208, 0.978, 669.052, 4572.531)" fill="#9525ad" opacity="0.5"/>
      <path id="Path_229" data-name="Path 229" d="M83.008,10.573c9.417,6.651,16.079,15.545,18.32,25.144A34.643,34.643,0,0,1,95.16,64.006c-6.189,8.4-16.326,14.923-27.963,18.363a67.667,67.667,0,0,1-36.352.573C19.206,79.731,9.028,72.934,4.011,64.5S-.882,46,2,36.88A50.667,50.667,0,0,1,18.816,12.817C27.143,6.019,38.2.564,49.822.04,61.419-.468,73.591,3.922,83.008,10.573Z" transform="matrix(0.978, -0.208, 0.208, 0.978, 674.683, 4571.334)" fill="#9525ad"/>
    </g>
    <g id="Group_211" data-name="Group 211" transform="translate(1154.902 767.785)">
      <path id="Path_71" data-name="Path 71" d="M.1,6.079c-5.8,20.229,21.32,29.384,42.966,24.307C59.675,26.49,82.432-6.458,66.55-29.092,54.456-46.326,39.921-47.728,30.269-41.274,14.606-30.8,5.9-14.151.1,6.079" transform="translate(0.701 44.822)" fill="#9525ad" opacity="0.5"/>
      <path id="Path_73" data-name="Path 73" d="M.053,4.81c-5.281,17.9,38.056,24.71,51.638,15.733,13.942-9.216,27.374-20.8,11.028-41.372C50.273-36.495,35.783-38.1,26.34-32.576,11.017-23.616,5.334-13.092.053,4.81" transform="translate(1.88 45.336)" fill="#9525ad"/>
    </g>
    <g id="Group_239" data-name="Group 239" transform="translate(698.479 497)">
      <path id="Path_255" data-name="Path 255" d="M203.252-96.982c38.155,62.254,40.084,145.875,2.787,203.4-37.3,57.631-113.713,89.374-192.166,90.5-78.453,1.027-158.834-28.353-201.276-88.861-42.334-60.4-46.621-151.834-6.431-215.218,40.191-63.281,124.967-98.62,204.6-95.744C90.5-200.122,164.99-159.133,203.252-96.982Z" transform="translate(266.171 113.388) rotate(-19)" fill="#9525ad" opacity="0.5"/>
      <path id="Path_258" data-name="Path 258" d="M174.8-99.8c35.6,60.6,37.4,142,2.6,198-34.8,56.1-106.1,87-179.3,88.1-73.2,1-148.2-27.6-187.8-86.5-39.5-58.8-43.5-147.8-6-209.5,37.5-61.6,116.6-96,190.9-93.2C69.6-200.2,139.1-160.3,174.8-99.8Z" transform="translate(276.218 114.059)" fill="#9525ad"/>
    </g>
  </g>
</svg>
