<svg xmlns="http://www.w3.org/2000/svg" width="550.044" height="486.162" viewBox="0 0 550.044 486.162">
  <g id="Group_810" data-name="Group 810" transform="translate(-71.267 -415.069)">
    <path id="Path_259" data-name="Path 259" d="M360.927,67.267c42.222,26.463,66.759,64.207,75.136,101.431,5.674,33.448,7.6,66.111-53.927,110.061-42.222,22.252-75.281,24.962-125.948,24.822-50.667-.211-141.015-16.464-180.359-38.716s-67.652-59.1-74.177-100.8S7.469,57.511,46.812,31.117C86.156,4.654,114.387-3.311,171.771,1.182,229.251,5.6,318.7,40.874,360.927,67.267Z" transform="translate(71.268 641.008) rotate(-31)" fill="#ff6a00" opacity="0.5"/>
    <path id="Path_254" data-name="Path 254" d="M360.744,47.507c42.222,26.463,75.328,64.017,75.136,101.431-.288,37.343-33.778,74.617-76,96.8-42.222,22.252-93.177,29.482-143.844,29.341-50.667-.211-101.046-7.721-140.389-29.973S8,186,1.47,144.306,10.01,56.071,49.354,29.678C88.7,3.215,152.319-3.173,209.7,1.319,267.183,5.741,318.521,21.114,360.744,47.507Z" transform="translate(94.511 582.768) rotate(-14)" fill="#ff6a00"/>
    <g id="Group_378" data-name="Group 378" transform="translate(-4 -1134)">
      <path id="Path_223" data-name="Path 223" d="M79.291,24.272C84.17,37.039,76.573,54.3,62.708,63.294c-13.846,9-33.985,8.01-44.656,2.923C-2.193,54.7-2.315,36.847,2.862,23.7A36.97,36.97,0,0,1,35.195.033C50.033-.721,74.411,11.486,79.291,24.272Z" transform="translate(547.668 1910.555) rotate(16)" fill="#ff6a00" opacity="0.5"/>
      <path id="Path_224" data-name="Path 224" d="M72.131,20.394c4.88,12.768-2.718,30.025-16.583,39.022-13.846,9-33.94,9.733-44.969,1.832C-.47,53.364-2.454,36.861,2.723,23.716A36.97,36.97,0,0,1,35.057.047C49.894-.707,67.251,7.608,72.131,20.394Z" transform="translate(550.644 1913.417) rotate(16)" fill="#ff6a00"/>
    </g>
    <g id="Group_210" data-name="Group 210" transform="matrix(0.454, 0.891, -0.891, 0.454, 221.024, 452.837)">
      <path id="Path_75" data-name="Path 75" d="M14.558,6.806C32.814-8.024,49.768,3.8,47.684,19.2,45.509,35.266,65.631,52.13,39.92,60.413,21.174,66.452,9.3,55.838,5.143,48.682-4.292,32.432-.51,19.046,14.558,6.806" transform="translate(3.908 0)" fill="#ff6a00" opacity="0.5"/>
      <path id="Path_77" data-name="Path 77" d="M14.558,6.806C32.815-8.024,49.768,3.8,47.684,19.2,45.509,35.266,65.631,52.13,39.921,60.413,21.174,66.452,9.3,55.838,5.143,48.682-4.292,32.432-.51,19.046,14.558,6.806" transform="translate(0 3.16)" fill="#ff6a00"/>
    </g>
  </g>
</svg>
